<mxfile host="Electron" modified="2024-04-18T20:27:43.421Z" agent="Mozilla/5.0 (Windows NT 10.0; Win64; x64) AppleWebKit/537.36 (KHTML, like Gecko) draw.io/24.1.0 Chrome/120.0.6099.109 Electron/28.1.0 Safari/537.36" etag="h8wfvGZbUUCbU5T0BhXF" version="24.1.0" type="device">
  <diagram name="Pagina-1" id="3G_zPgoJdzFpDXgjCDH4">
    <mxGraphModel dx="1036" dy="614" grid="1" gridSize="10" guides="1" tooltips="1" connect="1" arrows="1" fold="1" page="1" pageScale="1" pageWidth="827" pageHeight="1169" math="0" shadow="0">
      <root>
        <mxCell id="0" />
        <mxCell id="1" parent="0" />
        <mxCell id="VUYXOO7iPHo811Fv23ip-13" style="edgeStyle=orthogonalEdgeStyle;rounded=0;orthogonalLoop=1;jettySize=auto;html=1;entryX=0.5;entryY=0;entryDx=0;entryDy=0;" edge="1" parent="1" source="VUYXOO7iPHo811Fv23ip-1" target="VUYXOO7iPHo811Fv23ip-4">
          <mxGeometry relative="1" as="geometry" />
        </mxCell>
        <mxCell id="VUYXOO7iPHo811Fv23ip-14" style="edgeStyle=orthogonalEdgeStyle;rounded=0;orthogonalLoop=1;jettySize=auto;html=1;" edge="1" parent="1" source="VUYXOO7iPHo811Fv23ip-1">
          <mxGeometry relative="1" as="geometry">
            <mxPoint x="90" y="340" as="targetPoint" />
          </mxGeometry>
        </mxCell>
        <mxCell id="VUYXOO7iPHo811Fv23ip-16" style="edgeStyle=orthogonalEdgeStyle;rounded=0;orthogonalLoop=1;jettySize=auto;html=1;" edge="1" parent="1" source="VUYXOO7iPHo811Fv23ip-1">
          <mxGeometry relative="1" as="geometry">
            <mxPoint x="90" y="320" as="targetPoint" />
          </mxGeometry>
        </mxCell>
        <mxCell id="VUYXOO7iPHo811Fv23ip-19" style="edgeStyle=orthogonalEdgeStyle;rounded=0;orthogonalLoop=1;jettySize=auto;html=1;entryX=0;entryY=0.5;entryDx=0;entryDy=0;" edge="1" parent="1" source="VUYXOO7iPHo811Fv23ip-1" target="VUYXOO7iPHo811Fv23ip-2">
          <mxGeometry relative="1" as="geometry" />
        </mxCell>
        <mxCell id="VUYXOO7iPHo811Fv23ip-27" style="edgeStyle=orthogonalEdgeStyle;rounded=0;orthogonalLoop=1;jettySize=auto;html=1;entryX=0;entryY=0.5;entryDx=0;entryDy=0;" edge="1" parent="1" source="VUYXOO7iPHo811Fv23ip-1" target="VUYXOO7iPHo811Fv23ip-20">
          <mxGeometry relative="1" as="geometry" />
        </mxCell>
        <mxCell id="VUYXOO7iPHo811Fv23ip-28" style="edgeStyle=orthogonalEdgeStyle;rounded=0;orthogonalLoop=1;jettySize=auto;html=1;entryX=0;entryY=0.5;entryDx=0;entryDy=0;" edge="1" parent="1" source="VUYXOO7iPHo811Fv23ip-1" target="VUYXOO7iPHo811Fv23ip-21">
          <mxGeometry relative="1" as="geometry" />
        </mxCell>
        <mxCell id="VUYXOO7iPHo811Fv23ip-29" style="edgeStyle=orthogonalEdgeStyle;rounded=0;orthogonalLoop=1;jettySize=auto;html=1;entryX=0;entryY=0.5;entryDx=0;entryDy=0;" edge="1" parent="1" source="VUYXOO7iPHo811Fv23ip-1" target="VUYXOO7iPHo811Fv23ip-22">
          <mxGeometry relative="1" as="geometry" />
        </mxCell>
        <mxCell id="VUYXOO7iPHo811Fv23ip-1" value="VARIAZIONE" style="rounded=0;whiteSpace=wrap;html=1;" vertex="1" parent="1">
          <mxGeometry x="30" y="140" width="120" height="60" as="geometry" />
        </mxCell>
        <mxCell id="VUYXOO7iPHo811Fv23ip-2" value="Ha" style="rhombus;whiteSpace=wrap;html=1;" vertex="1" parent="1">
          <mxGeometry x="334" y="130" width="80" height="80" as="geometry" />
        </mxCell>
        <mxCell id="VUYXOO7iPHo811Fv23ip-9" style="edgeStyle=orthogonalEdgeStyle;rounded=0;orthogonalLoop=1;jettySize=auto;html=1;entryX=1;entryY=0.5;entryDx=0;entryDy=0;" edge="1" parent="1" source="VUYXOO7iPHo811Fv23ip-3" target="VUYXOO7iPHo811Fv23ip-2">
          <mxGeometry relative="1" as="geometry" />
        </mxCell>
        <mxCell id="VUYXOO7iPHo811Fv23ip-18" style="edgeStyle=orthogonalEdgeStyle;rounded=0;orthogonalLoop=1;jettySize=auto;html=1;" edge="1" parent="1" source="VUYXOO7iPHo811Fv23ip-3">
          <mxGeometry relative="1" as="geometry">
            <mxPoint x="430" y="170" as="targetPoint" />
          </mxGeometry>
        </mxCell>
        <mxCell id="VUYXOO7iPHo811Fv23ip-42" style="edgeStyle=orthogonalEdgeStyle;rounded=0;orthogonalLoop=1;jettySize=auto;html=1;entryX=0;entryY=0.5;entryDx=0;entryDy=0;" edge="1" parent="1" source="VUYXOO7iPHo811Fv23ip-3" target="VUYXOO7iPHo811Fv23ip-32">
          <mxGeometry relative="1" as="geometry" />
        </mxCell>
        <mxCell id="VUYXOO7iPHo811Fv23ip-43" style="edgeStyle=orthogonalEdgeStyle;rounded=0;orthogonalLoop=1;jettySize=auto;html=1;entryX=0;entryY=0.5;entryDx=0;entryDy=0;" edge="1" parent="1" source="VUYXOO7iPHo811Fv23ip-3" target="VUYXOO7iPHo811Fv23ip-30">
          <mxGeometry relative="1" as="geometry" />
        </mxCell>
        <mxCell id="VUYXOO7iPHo811Fv23ip-44" style="edgeStyle=orthogonalEdgeStyle;rounded=0;orthogonalLoop=1;jettySize=auto;html=1;entryX=0;entryY=0.5;entryDx=0;entryDy=0;" edge="1" parent="1" source="VUYXOO7iPHo811Fv23ip-3" target="VUYXOO7iPHo811Fv23ip-31">
          <mxGeometry relative="1" as="geometry" />
        </mxCell>
        <mxCell id="VUYXOO7iPHo811Fv23ip-45" style="edgeStyle=orthogonalEdgeStyle;rounded=0;orthogonalLoop=1;jettySize=auto;html=1;entryX=0;entryY=0.5;entryDx=0;entryDy=0;" edge="1" parent="1" source="VUYXOO7iPHo811Fv23ip-3" target="VUYXOO7iPHo811Fv23ip-33">
          <mxGeometry relative="1" as="geometry" />
        </mxCell>
        <mxCell id="VUYXOO7iPHo811Fv23ip-46" style="edgeStyle=orthogonalEdgeStyle;rounded=0;orthogonalLoop=1;jettySize=auto;html=1;entryX=0.5;entryY=1;entryDx=0;entryDy=0;" edge="1" parent="1" source="VUYXOO7iPHo811Fv23ip-3" target="VUYXOO7iPHo811Fv23ip-34">
          <mxGeometry relative="1" as="geometry" />
        </mxCell>
        <mxCell id="VUYXOO7iPHo811Fv23ip-59" style="edgeStyle=orthogonalEdgeStyle;rounded=0;orthogonalLoop=1;jettySize=auto;html=1;entryX=0.5;entryY=0;entryDx=0;entryDy=0;" edge="1" parent="1" source="VUYXOO7iPHo811Fv23ip-3" target="VUYXOO7iPHo811Fv23ip-58">
          <mxGeometry relative="1" as="geometry" />
        </mxCell>
        <mxCell id="VUYXOO7iPHo811Fv23ip-60" style="edgeStyle=orthogonalEdgeStyle;rounded=0;orthogonalLoop=1;jettySize=auto;html=1;" edge="1" parent="1" source="VUYXOO7iPHo811Fv23ip-3">
          <mxGeometry relative="1" as="geometry">
            <mxPoint x="640" y="340" as="targetPoint" />
          </mxGeometry>
        </mxCell>
        <mxCell id="VUYXOO7iPHo811Fv23ip-3" value="PRODOTTO" style="rounded=0;whiteSpace=wrap;html=1;" vertex="1" parent="1">
          <mxGeometry x="580" y="160" width="120" height="60" as="geometry" />
        </mxCell>
        <mxCell id="VUYXOO7iPHo811Fv23ip-4" value="Ha" style="rhombus;whiteSpace=wrap;html=1;" vertex="1" parent="1">
          <mxGeometry x="50" y="330" width="80" height="80" as="geometry" />
        </mxCell>
        <mxCell id="VUYXOO7iPHo811Fv23ip-5" value="Effettuare" style="rhombus;whiteSpace=wrap;html=1;" vertex="1" parent="1">
          <mxGeometry x="354" y="540" width="80" height="80" as="geometry" />
        </mxCell>
        <mxCell id="VUYXOO7iPHo811Fv23ip-15" style="edgeStyle=orthogonalEdgeStyle;rounded=0;orthogonalLoop=1;jettySize=auto;html=1;entryX=1;entryY=0.5;entryDx=0;entryDy=0;" edge="1" parent="1" source="VUYXOO7iPHo811Fv23ip-6" target="VUYXOO7iPHo811Fv23ip-4">
          <mxGeometry relative="1" as="geometry" />
        </mxCell>
        <mxCell id="VUYXOO7iPHo811Fv23ip-55" style="edgeStyle=orthogonalEdgeStyle;rounded=0;orthogonalLoop=1;jettySize=auto;html=1;entryX=0;entryY=0.5;entryDx=0;entryDy=0;" edge="1" parent="1" source="VUYXOO7iPHo811Fv23ip-6" target="VUYXOO7iPHo811Fv23ip-48">
          <mxGeometry relative="1" as="geometry">
            <Array as="points">
              <mxPoint x="354" y="260" />
            </Array>
          </mxGeometry>
        </mxCell>
        <mxCell id="VUYXOO7iPHo811Fv23ip-56" style="edgeStyle=orthogonalEdgeStyle;rounded=0;orthogonalLoop=1;jettySize=auto;html=1;entryX=0;entryY=0.5;entryDx=0;entryDy=0;" edge="1" parent="1" source="VUYXOO7iPHo811Fv23ip-6" target="VUYXOO7iPHo811Fv23ip-49">
          <mxGeometry relative="1" as="geometry" />
        </mxCell>
        <mxCell id="VUYXOO7iPHo811Fv23ip-57" style="edgeStyle=orthogonalEdgeStyle;rounded=0;orthogonalLoop=1;jettySize=auto;html=1;" edge="1" parent="1" source="VUYXOO7iPHo811Fv23ip-6">
          <mxGeometry relative="1" as="geometry">
            <mxPoint x="380" y="320" as="targetPoint" />
          </mxGeometry>
        </mxCell>
        <mxCell id="VUYXOO7iPHo811Fv23ip-6" value="OFFERTA" style="rounded=0;whiteSpace=wrap;html=1;" vertex="1" parent="1">
          <mxGeometry x="294" y="340" width="120" height="60" as="geometry" />
        </mxCell>
        <mxCell id="VUYXOO7iPHo811Fv23ip-63" style="edgeStyle=orthogonalEdgeStyle;rounded=0;orthogonalLoop=1;jettySize=auto;html=1;entryX=0.5;entryY=1;entryDx=0;entryDy=0;" edge="1" parent="1" source="VUYXOO7iPHo811Fv23ip-7" target="VUYXOO7iPHo811Fv23ip-58">
          <mxGeometry relative="1" as="geometry" />
        </mxCell>
        <mxCell id="VUYXOO7iPHo811Fv23ip-64" style="edgeStyle=orthogonalEdgeStyle;rounded=0;orthogonalLoop=1;jettySize=auto;html=1;" edge="1" parent="1" source="VUYXOO7iPHo811Fv23ip-7">
          <mxGeometry relative="1" as="geometry">
            <mxPoint x="640" y="440" as="targetPoint" />
          </mxGeometry>
        </mxCell>
        <mxCell id="VUYXOO7iPHo811Fv23ip-65" style="edgeStyle=orthogonalEdgeStyle;rounded=0;orthogonalLoop=1;jettySize=auto;html=1;entryX=1;entryY=0.5;entryDx=0;entryDy=0;" edge="1" parent="1" source="VUYXOO7iPHo811Fv23ip-7" target="VUYXOO7iPHo811Fv23ip-5">
          <mxGeometry relative="1" as="geometry" />
        </mxCell>
        <mxCell id="VUYXOO7iPHo811Fv23ip-80" style="edgeStyle=orthogonalEdgeStyle;rounded=0;orthogonalLoop=1;jettySize=auto;html=1;entryX=0;entryY=0.5;entryDx=0;entryDy=0;" edge="1" parent="1" source="VUYXOO7iPHo811Fv23ip-7" target="VUYXOO7iPHo811Fv23ip-68">
          <mxGeometry relative="1" as="geometry" />
        </mxCell>
        <mxCell id="VUYXOO7iPHo811Fv23ip-81" style="edgeStyle=orthogonalEdgeStyle;rounded=0;orthogonalLoop=1;jettySize=auto;html=1;entryX=0;entryY=0.5;entryDx=0;entryDy=0;" edge="1" parent="1" source="VUYXOO7iPHo811Fv23ip-7" target="VUYXOO7iPHo811Fv23ip-69">
          <mxGeometry relative="1" as="geometry" />
        </mxCell>
        <mxCell id="VUYXOO7iPHo811Fv23ip-7" value="ORDINE" style="rounded=0;whiteSpace=wrap;html=1;" vertex="1" parent="1">
          <mxGeometry x="580" y="550" width="120" height="60" as="geometry" />
        </mxCell>
        <mxCell id="VUYXOO7iPHo811Fv23ip-66" style="edgeStyle=orthogonalEdgeStyle;rounded=0;orthogonalLoop=1;jettySize=auto;html=1;entryX=0;entryY=0.5;entryDx=0;entryDy=0;" edge="1" parent="1" source="VUYXOO7iPHo811Fv23ip-8" target="VUYXOO7iPHo811Fv23ip-5">
          <mxGeometry relative="1" as="geometry">
            <mxPoint x="350" y="580" as="targetPoint" />
          </mxGeometry>
        </mxCell>
        <mxCell id="VUYXOO7iPHo811Fv23ip-67" style="edgeStyle=orthogonalEdgeStyle;rounded=0;orthogonalLoop=1;jettySize=auto;html=1;" edge="1" parent="1" source="VUYXOO7iPHo811Fv23ip-8">
          <mxGeometry relative="1" as="geometry">
            <mxPoint x="340" y="580" as="targetPoint" />
          </mxGeometry>
        </mxCell>
        <mxCell id="VUYXOO7iPHo811Fv23ip-82" style="edgeStyle=orthogonalEdgeStyle;rounded=0;orthogonalLoop=1;jettySize=auto;html=1;entryX=0;entryY=0.5;entryDx=0;entryDy=0;" edge="1" parent="1" source="VUYXOO7iPHo811Fv23ip-8" target="VUYXOO7iPHo811Fv23ip-70">
          <mxGeometry relative="1" as="geometry" />
        </mxCell>
        <mxCell id="VUYXOO7iPHo811Fv23ip-86" style="edgeStyle=orthogonalEdgeStyle;rounded=0;orthogonalLoop=1;jettySize=auto;html=1;entryX=0;entryY=0.5;entryDx=0;entryDy=0;" edge="1" parent="1" source="VUYXOO7iPHo811Fv23ip-8" target="VUYXOO7iPHo811Fv23ip-71">
          <mxGeometry relative="1" as="geometry" />
        </mxCell>
        <mxCell id="VUYXOO7iPHo811Fv23ip-87" style="edgeStyle=orthogonalEdgeStyle;rounded=0;orthogonalLoop=1;jettySize=auto;html=1;entryX=0;entryY=0.5;entryDx=0;entryDy=0;" edge="1" parent="1" source="VUYXOO7iPHo811Fv23ip-8" target="VUYXOO7iPHo811Fv23ip-72">
          <mxGeometry relative="1" as="geometry" />
        </mxCell>
        <mxCell id="VUYXOO7iPHo811Fv23ip-8" value="UTENTE" style="rounded=0;whiteSpace=wrap;html=1;" vertex="1" parent="1">
          <mxGeometry x="18" y="550" width="120" height="60" as="geometry" />
        </mxCell>
        <mxCell id="VUYXOO7iPHo811Fv23ip-12" value="" style="endArrow=none;html=1;rounded=0;" edge="1" parent="1">
          <mxGeometry width="50" height="50" relative="1" as="geometry">
            <mxPoint x="480" y="138" as="sourcePoint" />
            <mxPoint x="480" y="218" as="targetPoint" />
          </mxGeometry>
        </mxCell>
        <mxCell id="VUYXOO7iPHo811Fv23ip-17" value="" style="endArrow=none;html=1;rounded=0;" edge="1" parent="1">
          <mxGeometry width="50" height="50" relative="1" as="geometry">
            <mxPoint x="140" y="280" as="sourcePoint" />
            <mxPoint x="40" y="280" as="targetPoint" />
          </mxGeometry>
        </mxCell>
        <mxCell id="VUYXOO7iPHo811Fv23ip-20" value="" style="ellipse;whiteSpace=wrap;html=1;aspect=fixed;" vertex="1" parent="1">
          <mxGeometry x="118" y="21" width="20" height="20" as="geometry" />
        </mxCell>
        <mxCell id="VUYXOO7iPHo811Fv23ip-21" value="" style="ellipse;whiteSpace=wrap;html=1;aspect=fixed;" vertex="1" parent="1">
          <mxGeometry x="118" y="60" width="20" height="20" as="geometry" />
        </mxCell>
        <mxCell id="VUYXOO7iPHo811Fv23ip-22" value="" style="ellipse;whiteSpace=wrap;html=1;aspect=fixed;" vertex="1" parent="1">
          <mxGeometry x="118" y="101" width="20" height="20" as="geometry" />
        </mxCell>
        <mxCell id="VUYXOO7iPHo811Fv23ip-24" value="colore" style="text;html=1;align=center;verticalAlign=middle;whiteSpace=wrap;rounded=0;" vertex="1" parent="1">
          <mxGeometry x="132" y="16" width="60" height="30" as="geometry" />
        </mxCell>
        <mxCell id="VUYXOO7iPHo811Fv23ip-25" value="taglia" style="text;html=1;align=center;verticalAlign=middle;whiteSpace=wrap;rounded=0;" vertex="1" parent="1">
          <mxGeometry x="131" y="55" width="60" height="30" as="geometry" />
        </mxCell>
        <mxCell id="VUYXOO7iPHo811Fv23ip-26" value="quantita" style="text;html=1;align=center;verticalAlign=middle;whiteSpace=wrap;rounded=0;" vertex="1" parent="1">
          <mxGeometry x="138" y="96" width="60" height="30" as="geometry" />
        </mxCell>
        <mxCell id="VUYXOO7iPHo811Fv23ip-30" value="" style="ellipse;whiteSpace=wrap;html=1;aspect=fixed;" vertex="1" parent="1">
          <mxGeometry x="660" y="40" width="20" height="20" as="geometry" />
        </mxCell>
        <mxCell id="VUYXOO7iPHo811Fv23ip-31" value="" style="ellipse;whiteSpace=wrap;html=1;aspect=fixed;fillColor=#292323;" vertex="1" parent="1">
          <mxGeometry x="660" y="69" width="20" height="20" as="geometry" />
        </mxCell>
        <mxCell id="VUYXOO7iPHo811Fv23ip-32" value="" style="ellipse;whiteSpace=wrap;html=1;aspect=fixed;" vertex="1" parent="1">
          <mxGeometry x="660" y="10" width="20" height="20" as="geometry" />
        </mxCell>
        <mxCell id="VUYXOO7iPHo811Fv23ip-33" value="" style="ellipse;whiteSpace=wrap;html=1;aspect=fixed;" vertex="1" parent="1">
          <mxGeometry x="660" y="99" width="20" height="20" as="geometry" />
        </mxCell>
        <mxCell id="VUYXOO7iPHo811Fv23ip-34" value="" style="ellipse;whiteSpace=wrap;html=1;aspect=fixed;direction=south;" vertex="1" parent="1">
          <mxGeometry x="660" y="128" width="20" height="20" as="geometry" />
        </mxCell>
        <mxCell id="VUYXOO7iPHo811Fv23ip-37" value="marca" style="text;html=1;align=center;verticalAlign=middle;whiteSpace=wrap;rounded=0;" vertex="1" parent="1">
          <mxGeometry x="680" y="5" width="60" height="30" as="geometry" />
        </mxCell>
        <mxCell id="VUYXOO7iPHo811Fv23ip-38" value="url_img" style="text;html=1;align=center;verticalAlign=middle;whiteSpace=wrap;rounded=0;" vertex="1" parent="1">
          <mxGeometry x="680" y="66" width="60" height="30" as="geometry" />
        </mxCell>
        <mxCell id="VUYXOO7iPHo811Fv23ip-39" value="prezzo" style="text;html=1;align=center;verticalAlign=middle;whiteSpace=wrap;rounded=0;" vertex="1" parent="1">
          <mxGeometry x="677" y="96" width="60" height="30" as="geometry" />
        </mxCell>
        <mxCell id="VUYXOO7iPHo811Fv23ip-40" value="categoria" style="text;html=1;align=center;verticalAlign=middle;whiteSpace=wrap;rounded=0;" vertex="1" parent="1">
          <mxGeometry x="680" y="123" width="60" height="30" as="geometry" />
        </mxCell>
        <mxCell id="VUYXOO7iPHo811Fv23ip-41" value="descrizione" style="text;html=1;align=center;verticalAlign=middle;whiteSpace=wrap;rounded=0;" vertex="1" parent="1">
          <mxGeometry x="690" y="37" width="60" height="30" as="geometry" />
        </mxCell>
        <mxCell id="VUYXOO7iPHo811Fv23ip-47" value="" style="endArrow=none;html=1;rounded=0;" edge="1" parent="1">
          <mxGeometry width="50" height="50" relative="1" as="geometry">
            <mxPoint x="650" y="150" as="sourcePoint" />
            <mxPoint x="650" y="130" as="targetPoint" />
          </mxGeometry>
        </mxCell>
        <mxCell id="VUYXOO7iPHo811Fv23ip-48" value="" style="ellipse;whiteSpace=wrap;html=1;aspect=fixed;" vertex="1" parent="1">
          <mxGeometry x="384" y="250" width="20" height="20" as="geometry" />
        </mxCell>
        <mxCell id="VUYXOO7iPHo811Fv23ip-49" value="" style="ellipse;whiteSpace=wrap;html=1;aspect=fixed;" vertex="1" parent="1">
          <mxGeometry x="384" y="280" width="20" height="20" as="geometry" />
        </mxCell>
        <mxCell id="VUYXOO7iPHo811Fv23ip-50" value="" style="ellipse;whiteSpace=wrap;html=1;aspect=fixed;" vertex="1" parent="1">
          <mxGeometry x="384" y="310" width="20" height="20" as="geometry" />
        </mxCell>
        <mxCell id="VUYXOO7iPHo811Fv23ip-52" value="data_inizio" style="text;html=1;align=center;verticalAlign=middle;whiteSpace=wrap;rounded=0;" vertex="1" parent="1">
          <mxGeometry x="410" y="245" width="60" height="30" as="geometry" />
        </mxCell>
        <mxCell id="VUYXOO7iPHo811Fv23ip-53" value="data_fine" style="text;html=1;align=center;verticalAlign=middle;whiteSpace=wrap;rounded=0;" vertex="1" parent="1">
          <mxGeometry x="408" y="275" width="60" height="30" as="geometry" />
        </mxCell>
        <mxCell id="VUYXOO7iPHo811Fv23ip-54" value="prezzo_offerta" style="text;html=1;align=center;verticalAlign=middle;whiteSpace=wrap;rounded=0;" vertex="1" parent="1">
          <mxGeometry x="420" y="305" width="60" height="30" as="geometry" />
        </mxCell>
        <mxCell id="VUYXOO7iPHo811Fv23ip-58" value="Riferisce" style="rhombus;whiteSpace=wrap;html=1;" vertex="1" parent="1">
          <mxGeometry x="600" y="350" width="80" height="80" as="geometry" />
        </mxCell>
        <mxCell id="VUYXOO7iPHo811Fv23ip-61" value="" style="endArrow=none;html=1;rounded=0;" edge="1" parent="1">
          <mxGeometry width="50" height="50" relative="1" as="geometry">
            <mxPoint x="590" y="280" as="sourcePoint" />
            <mxPoint x="690" y="280" as="targetPoint" />
          </mxGeometry>
        </mxCell>
        <mxCell id="VUYXOO7iPHo811Fv23ip-68" value="" style="ellipse;whiteSpace=wrap;html=1;aspect=fixed;" vertex="1" parent="1">
          <mxGeometry x="660" y="670" width="20" height="20" as="geometry" />
        </mxCell>
        <mxCell id="VUYXOO7iPHo811Fv23ip-69" value="" style="ellipse;whiteSpace=wrap;html=1;aspect=fixed;" vertex="1" parent="1">
          <mxGeometry x="661" y="710" width="20" height="20" as="geometry" />
        </mxCell>
        <mxCell id="VUYXOO7iPHo811Fv23ip-70" value="" style="ellipse;whiteSpace=wrap;html=1;aspect=fixed;" vertex="1" parent="1">
          <mxGeometry x="98" y="650" width="20" height="20" as="geometry" />
        </mxCell>
        <mxCell id="VUYXOO7iPHo811Fv23ip-71" value="" style="ellipse;whiteSpace=wrap;html=1;aspect=fixed;" vertex="1" parent="1">
          <mxGeometry x="98" y="690" width="20" height="20" as="geometry" />
        </mxCell>
        <mxCell id="VUYXOO7iPHo811Fv23ip-72" value="" style="ellipse;whiteSpace=wrap;html=1;aspect=fixed;" vertex="1" parent="1">
          <mxGeometry x="98" y="730" width="20" height="20" as="geometry" />
        </mxCell>
        <mxCell id="VUYXOO7iPHo811Fv23ip-74" value="data_ordine" style="text;html=1;align=center;verticalAlign=middle;whiteSpace=wrap;rounded=0;" vertex="1" parent="1">
          <mxGeometry x="693" y="665" width="60" height="30" as="geometry" />
        </mxCell>
        <mxCell id="VUYXOO7iPHo811Fv23ip-75" value="data_consegna" style="text;html=1;align=center;verticalAlign=middle;whiteSpace=wrap;rounded=0;" vertex="1" parent="1">
          <mxGeometry x="705" y="705" width="60" height="30" as="geometry" />
        </mxCell>
        <mxCell id="VUYXOO7iPHo811Fv23ip-76" value="ema&lt;span style=&quot;color: rgba(0, 0, 0, 0); font-family: monospace; font-size: 0px; text-align: start; text-wrap: nowrap;&quot;&gt;%3CmxGraphModel%3E%3Croot%3E%3CmxCell%20id%3D%220%22%2F%3E%3CmxCell%20id%3D%221%22%20parent%3D%220%22%2F%3E%3CmxCell%20id%3D%222%22%20value%3D%22Text%22%20style%3D%22text%3Bhtml%3D1%3Balign%3Dcenter%3BverticalAlign%3Dmiddle%3BwhiteSpace%3Dwrap%3Brounded%3D0%3B%22%20vertex%3D%221%22%20parent%3D%221%22%3E%3CmxGeometry%20x%3D%22670%22%20y%3D%22665%22%20width%3D%2260%22%20height%3D%2230%22%20as%3D%22geometry%22%2F%3E%3C%2FmxCell%3E%3C%2Froot%3E%3C%2FmxGraphModel%3E&lt;/span&gt;&lt;span style=&quot;color: rgba(0, 0, 0, 0); font-family: monospace; font-size: 0px; text-align: start; text-wrap: nowrap;&quot;&gt;%3CmxGraphModel%3E%3Croot%3E%3CmxCell%20id%3D%220%22%2F%3E%3CmxCell%20id%3D%221%22%20parent%3D%220%22%2F%3E%3CmxCell%20id%3D%222%22%20value%3D%22Text%22%20style%3D%22text%3Bhtml%3D1%3Balign%3Dcenter%3BverticalAlign%3Dmiddle%3BwhiteSpace%3Dwrap%3Brounded%3D0%3B%22%20vertex%3D%221%22%20parent%3D%221%22%3E%3CmxGeometry%20x%3D%22670%22%20y%3D%22665%22%20width%3D%2260%22%20height%3D%2230%22%20as%3D%22geometry%22%2F%3E%3C%2FmxCell%3E%3C%2Froot%3E%3C%2FmxGraphModel%3E&lt;/span&gt;il" style="text;html=1;align=center;verticalAlign=middle;whiteSpace=wrap;rounded=0;" vertex="1" parent="1">
          <mxGeometry x="114" y="645" width="60" height="30" as="geometry" />
        </mxCell>
        <mxCell id="VUYXOO7iPHo811Fv23ip-78" value="password" style="text;html=1;align=center;verticalAlign=middle;whiteSpace=wrap;rounded=0;" vertex="1" parent="1">
          <mxGeometry x="123" y="685" width="60" height="30" as="geometry" />
        </mxCell>
        <mxCell id="VUYXOO7iPHo811Fv23ip-79" value="indirizzo" style="text;html=1;align=center;verticalAlign=middle;whiteSpace=wrap;rounded=0;" vertex="1" parent="1">
          <mxGeometry x="118" y="725" width="60" height="30" as="geometry" />
        </mxCell>
        <mxCell id="VUYXOO7iPHo811Fv23ip-88" value="" style="endArrow=none;html=1;rounded=0;" edge="1" parent="1">
          <mxGeometry width="50" height="50" relative="1" as="geometry">
            <mxPoint x="240" y="610" as="sourcePoint" />
            <mxPoint x="240" y="540" as="targetPoint" />
          </mxGeometry>
        </mxCell>
        <mxCell id="VUYXOO7iPHo811Fv23ip-89" value="&lt;h1 style=&quot;margin-top: 0px;&quot;&gt;Requisiti funzionali&lt;/h1&gt;&lt;p&gt;1.devo fare le CRUD di ogni entità&lt;/p&gt;&lt;p&gt;2 galleria (campo diprodotto) è del tipo: maglione invernale, felpa primaverile, maglia estiva, jeans, pantaloni, intimo...&lt;/p&gt;&lt;p&gt;3. per gestire la galleria nel mio DB avrò un riferimento ad un immagine (un url). Ogni immagine rappresenta una variazione&amp;nbsp;&lt;/p&gt;&lt;p&gt;e gli acquisti sono fatti sulle variazioni. Ogni prodotto ha una img univoca che è stata inserita in precenza dal mio ADMIN nel sistema.&lt;/p&gt;" style="text;html=1;whiteSpace=wrap;overflow=hidden;rounded=0;" vertex="1" parent="1">
          <mxGeometry x="20" y="810" width="780" height="190" as="geometry" />
        </mxCell>
      </root>
    </mxGraphModel>
  </diagram>
</mxfile>
